<?xml version="1.0" encoding="utf-8"?>
<!-- Generator: Adobe Illustrator 22.0.0, SVG Export Plug-In . SVG Version: 6.00 Build 0)  -->
<svg version="1.1" id="Layer_1" xmlns="http://www.w3.org/2000/svg" xmlns:xlink="http://www.w3.org/1999/xlink" x="0px" y="0px"
	 viewBox="0 0 1500 370" enable-background="new 0 0 1500 370" xml:space="preserve">
<g>
	<rect y="-3.4" fill="#27A8E0" width="1500" height="376.7"/>
</g>
<path fill="#764D2A" d="M260.2,152v22h-22.1v-22H260.2v-44.2h-22.1v22h-44v-22H172v22h-66.1v-44h-22v198.3h22v-22H172v22h22.1v-22
	h44v22h22.1v-22h22V152H260.2z M194.1,174H172v-22h22.1V174z"/>
<rect x="216.1" y="174" fill="#EC1066" width="22" height="22"/>
<polygon fill="#F1F1F1" points="106,218.1 83.9,218.1 83.9,240.1 83.9,262.1 83.9,284.2 106,284.2 106,262.1 128,262.1 128,240.1 
	128,218.1 "/>
<polygon fill="#F1F1F1" points="260.2,218.1 260.2,284.2 238.1,284.2 238.1,262.1 194.1,262.1 194.1,284.2 172.1,284.2 172.1,240.1 
	172,240.1 172,218.1 194.1,218.1 194.1,218 194.1,218 194.1,174 216.1,174 216.1,196 238.1,196 238.1,218.1 "/>
<rect x="172" y="152" fill="#7DC25D" width="22" height="22"/>
<rect x="238.1" y="152" fill="#7DC25D" width="22" height="22"/>
<path fill="#FFFFFF" d="M477.4,249.4H490v12.7h-76.1v-12.7h25.4V186h-25.4v-12.7H490V186h-25.4v63.4L477.4,249.4z"/>
<path fill="#FFFFFF" d="M553.5,262.1h-12.7V186h-25.4v-12.7h76.1V186h-25.4v76.1L553.5,262.1z"/>
<path fill="#FFFFFF" d="M680.3,236.8h-63.4v-25.4H693v25.4H680.3z"/>
<path fill="#FFFFFF" d="M781.8,262.1h-12.7v-25.4h-38.1v25.4h-25.4v-63.4h12.7V186h12.7v-12.7h38.1V186h12.7v12.7h12.7v63.4
	L781.8,262.1z M756.4,224.1h12.7v-25.4h-12.7V186h-12.7v12.7h-12.7v25.4L756.4,224.1L756.4,224.1z"/>
<path fill="#FFFFFF" d="M883.3,262.1h-12.7v-12.7h-12.7v-12.7h-12.7v-12.7h-12.7v38.1h-25.4v-88.8h25.4V186h12.7v12.7h12.7v12.7
	h12.7v-38H896v88.8H883.3z"/>
<path fill="#FFFFFF" d="M984.8,249.4h12.7v12.7h-76.1v-12.7h25.4V186h-25.4v-12.7h76.1V186h-25.4v63.4L984.8,249.4z"/>
<path fill="#FFFFFF" d="M1048.2,236.8v-12.7h-12.7v38.1h-25.4v-88.8h25.4V186h12.7v12.7h12.7V186h12.7v-12.7h25.4v88.8h-25.4v-38.1
	h-12.7v12.7H1048.2z"/>
<path fill="#FFFFFF" d="M1187.8,262.1h-12.7v-25.4H1137v25.4h-25.4v-63.4h12.7V186h12.7v-12.7h38.1V186h12.7v12.7h12.7v63.4
	L1187.8,262.1z M1162.4,224.1h12.7v-25.4h-12.7V186h-12.7v12.7H1137v25.4L1162.4,224.1L1162.4,224.1z"/>
<path fill="#FFFFFF" d="M1289.2,249.4h12.7v12.7h-88.8v-88.8h25.4v76.1H1289.2z"/>
<path fill="#FFFFFF" d="M1378,262.1h-50.8v-12.7h-12.7v-12.7h25.4v12.7h38v-25.4h-50.8v-12.7h-12.7V186h12.7v-12.7h50.7V186h12.7
	v12.7h-25.4V186H1340v25.4h50.7v12.7h12.7v25.4h-12.7v12.7L1378,262.1z"/>
</svg>
